<svg xmlns="http://www.w3.org/2000/svg" xmlns:xlink="http://www.w3.org/1999/xlink" version="1.1" width="940" height="788" viewBox="0 0 940 788" xml:space="preserve">
<desc>Created with Fabric.js 3.5.0</desc>
<defs>
</defs>
<rect x="0" y="0" width="40%" height="70%" fill="#00000000"/>
<g transform="matrix(0.5906 0 0 0.5906 201.4731 394.0017)" id="108576">
<g style="" vector-effect="non-scaling-stroke">
		<g transform="matrix(1 0 0 1 167.4495 86.1645)" id="Layer_1">
<line style="stroke: rgb(0,0,0); stroke-width: 10; stroke-dasharray: none; stroke-linecap: round; stroke-dashoffset: 0; stroke-linejoin: round; stroke-miterlimit: 2.6131; is-custom-font: none; font-file-url: none; fill: none; fill-rule: evenodd; opacity: 1;" x1="20.035500000000013" y1="-31.918500000000023" x2="-20.035500000000013" y2="31.918500000000023"/>
</g>
		<g transform="matrix(1 0 0 1 137.863 128.6235)" id="Layer_1">
<path style="stroke: rgb(0,0,0); stroke-width: 10; stroke-dasharray: none; stroke-linecap: round; stroke-dashoffset: 0; stroke-linejoin: round; stroke-miterlimit: 2.6131; is-custom-font: none; font-file-url: none; fill: none; fill-rule: evenodd; opacity: 1;" transform=" translate(-387.863, -378.6235)" d="M 397.414 368.083 c -5.066 8.015 -10.936 16.389 -19.102 21.081" stroke-linecap="round"/>
</g>
		<g transform="matrix(1 0 0 1 100.768 155.1235)" id="Layer_1">
<line style="stroke: rgb(0,0,0); stroke-width: 10; stroke-dasharray: none; stroke-linecap: round; stroke-dashoffset: 0; stroke-linejoin: round; stroke-miterlimit: 2.6131; is-custom-font: none; font-file-url: none; fill: none; fill-rule: evenodd; opacity: 1;" x1="27.544999999999987" y1="-15.95950000000002" x2="-27.544999999999987" y2="15.95950000000002"/>
</g>
		<g transform="matrix(1 0 0 1 58.9253 164.19)" id="Layer_1">
<path style="stroke: rgb(0,0,0); stroke-width: 10; stroke-dasharray: none; stroke-linecap: round; stroke-dashoffset: 0; stroke-linejoin: round; stroke-miterlimit: 2.6131; is-custom-font: none; font-file-url: none; fill: none; fill-rule: evenodd; opacity: 1;" transform=" translate(-308.9254, -414.19)" d="M 323.223 421.083 c -20.957 11.904 -30.757 6.977 -28.196 -19.891" stroke-linecap="round"/>
</g>
		<g transform="matrix(1 0 0 1 47.836 120.9205)" id="Layer_1">
<line style="stroke: rgb(0,0,0); stroke-width: 10; stroke-dasharray: none; stroke-linecap: round; stroke-dashoffset: 0; stroke-linejoin: round; stroke-miterlimit: 2.6131; is-custom-font: none; font-file-url: none; fill: none; fill-rule: evenodd; opacity: 1;" x1="-2.8100000000000023" y1="30.271500000000003" x2="2.8100000000000023" y2="-30.271500000000003"/>
</g>
		<g transform="matrix(1 0 0 1 54.8815 78.593)" id="Layer_1">
<path style="stroke: rgb(0,0,0); stroke-width: 10; stroke-dasharray: none; stroke-linecap: round; stroke-dashoffset: 0; stroke-linejoin: round; stroke-miterlimit: 2.6131; is-custom-font: none; font-file-url: none; fill: none; fill-rule: evenodd; opacity: 1;" transform=" translate(-304.8815, -328.593)" d="M 300.646 340.649 c 0.913 -9.772 4.733 -18.16 8.471 -24.112" stroke-linecap="round"/>
</g>
		<g transform="matrix(1 0 0 1 94.1095 12.2705)" id="Layer_1">
<line style="stroke: rgb(0,0,0); stroke-width: 10; stroke-dasharray: none; stroke-linecap: round; stroke-dashoffset: 0; stroke-linejoin: round; stroke-miterlimit: 2.6131; is-custom-font: none; font-file-url: none; fill: none; fill-rule: evenodd; opacity: 1;" x1="-34.99249999999998" y1="54.26649999999999" x2="34.99249999999998" y2="-54.26649999999999"/>
</g>
		<g transform="matrix(1 0 0 1 103.2331 90.8029)" id="Layer_1">
<path style="stroke: rgb(0,0,0); stroke-width: 10; stroke-dasharray: none; stroke-linecap: round; stroke-dashoffset: 0; stroke-linejoin: round; stroke-miterlimit: 2.6131; is-custom-font: none; font-file-url: none; fill: none; fill-rule: evenodd; opacity: 1;" transform=" translate(-353.2331, -340.8029)" d="M 336.012 334.601 c 5.468 -7.959 16.666 -10.104 25.275 -4.845 c 8.9 5.385 11.82 16.555 6.533 24.971" stroke-linecap="round"/>
</g>
		<g transform="matrix(1 0 0 1 131.8425 109.442)" id="Layer_1">
<path style="stroke: rgb(0,0,0); stroke-width: 10; stroke-dasharray: none; stroke-linecap: round; stroke-dashoffset: 0; stroke-linejoin: round; stroke-miterlimit: 2.6131; is-custom-font: none; font-file-url: none; fill: none; fill-rule: evenodd; opacity: 1;" transform=" translate(-381.8425, -359.442)" d="M 368.152 354.519 c 4.318 -6.34 13.178 -8.069 20.084 -3.89 c 7.087 4.291 9.413 13.219 5.191 19.904" stroke-linecap="round"/>
</g>
		<g transform="matrix(1 0 0 1 73.651 74.2385)" id="Layer_1">
<path style="stroke: rgb(0,0,0); stroke-width: 10; stroke-dasharray: none; stroke-linecap: round; stroke-dashoffset: 0; stroke-linejoin: round; stroke-miterlimit: 2.6131; is-custom-font: none; font-file-url: none; fill: none; fill-rule: evenodd; opacity: 1;" transform=" translate(-323.651, -324.2385)" d="M 309.823 319.25 c 4.374 -6.367 13.357 -8.111 20.251 -3.876 c 7.17 4.347 9.551 13.316 5.287 20.043" stroke-linecap="round"/>
</g>
		<g transform="matrix(1 0 0 1 71.2365 140.237)" id="Layer_1">
<path style="stroke: rgb(0,0,0); stroke-width: 10; stroke-dasharray: none; stroke-linecap: round; stroke-dashoffset: 0; stroke-linejoin: round; stroke-miterlimit: 2.6131; is-custom-font: none; font-file-url: none; fill: none; fill-rule: evenodd; opacity: 1;" transform=" translate(-321.2365, -390.237)" d="M 297.311 376.402 c 9.896 1.813 19.337 5.385 27.919 10.547 c 7.516 4.596 14.271 10.368 19.932 17.123" stroke-linecap="round"/>
</g>
		<g transform="matrix(1 0 0 1 184.177 163.574)" id="Layer_1">
<line style="stroke: rgb(0,0,0); stroke-width: 10; stroke-dasharray: none; stroke-linecap: round; stroke-dashoffset: 0; stroke-linejoin: round; stroke-miterlimit: 2.6131; is-custom-font: none; font-file-url: none; fill: none; fill-rule: evenodd; opacity: 1;" x1="0" y1="-33.129999999999995" x2="0" y2="33.129999999999995"/>
</g>
		<g transform="matrix(1 0 0 1 169.761 210.85)" id="Layer_1">
<path style="stroke: rgb(0,0,0); stroke-width: 10; stroke-dasharray: none; stroke-linecap: round; stroke-dashoffset: 0; stroke-linejoin: round; stroke-miterlimit: 2.6131; is-custom-font: none; font-file-url: none; fill: none; fill-rule: evenodd; opacity: 1;" transform=" translate(-419.761, -460.85)" d="M 434.177 446.704 c 0 15.517 -13.053 28.292 -28.832 28.292" stroke-linecap="round"/>
</g>
		<g transform="matrix(1 0 0 1 -1.6955 224.996)" id="Layer_1">
<line style="stroke: rgb(0,0,0); stroke-width: 10; stroke-dasharray: none; stroke-linecap: round; stroke-dashoffset: 0; stroke-linejoin: round; stroke-miterlimit: 2.6131; is-custom-font: none; font-file-url: none; fill: none; fill-rule: evenodd; opacity: 1;" x1="157.0405" y1="0" x2="-157.0405" y2="0"/>
</g>
		<g transform="matrix(1 0 0 1 -173.1105 210.85)" id="Layer_1">
<path style="stroke: rgb(0,0,0); stroke-width: 10; stroke-dasharray: none; stroke-linecap: round; stroke-dashoffset: 0; stroke-linejoin: round; stroke-miterlimit: 2.6131; is-custom-font: none; font-file-url: none; fill: none; fill-rule: evenodd; opacity: 1;" transform=" translate(-76.8895, -460.85)" d="M 91.264 474.996 c -15.738 0 -28.749 -12.692 -28.749 -28.292" stroke-linecap="round"/>
</g>
		<g transform="matrix(1 0 0 1 -16.07 -14.146)" id="Layer_1">
<polyline style="stroke: rgb(0,0,0); stroke-width: 10; stroke-dasharray: none; stroke-linecap: round; stroke-dashoffset: 0; stroke-linejoin: round; stroke-miterlimit: 2.6131; is-custom-font: none; font-file-url: none; fill: none; fill-rule: evenodd; opacity: 1;" points="-171.415,210.85 -171.415,-97.653 -46.882,-210.85 171.415,-210.85 "/>
</g>
		<g transform="matrix(1 0 0 1 169.761 -210.85)" id="Layer_1">
<path style="stroke: rgb(0,0,0); stroke-width: 10; stroke-dasharray: none; stroke-linecap: round; stroke-dashoffset: 0; stroke-linejoin: round; stroke-miterlimit: 2.6131; is-custom-font: none; font-file-url: none; fill: none; fill-rule: evenodd; opacity: 1;" transform=" translate(-419.761, -39.15)" d="M 405.345 25.004 c 15.863 0 28.832 12.79 28.832 28.292" stroke-linecap="round"/>
</g>
		<g transform="matrix(1 0 0 1 184.177 -93.805)" id="Layer_1">
<line style="stroke: rgb(0,0,0); stroke-width: 10; stroke-dasharray: none; stroke-linecap: round; stroke-dashoffset: 0; stroke-linejoin: round; stroke-miterlimit: 2.6131; is-custom-font: none; font-file-url: none; fill: none; fill-rule: evenodd; opacity: 1;" x1="0" y1="-102.899" x2="0" y2="102.899"/>
</g>
		<g transform="matrix(1 0 0 1 -57.222 -172.813)" id="Layer_1">
<line style="stroke: rgb(0,0,0); stroke-width: 10; stroke-dasharray: none; stroke-linecap: round; stroke-dashoffset: 0; stroke-linejoin: round; stroke-miterlimit: 2.6131; is-custom-font: none; font-file-url: none; fill: none; fill-rule: evenodd; opacity: 1;" x1="0" y1="-52.183" x2="0" y2="52.183"/>
</g>
		<g transform="matrix(1 0 0 1 -64.911 -113.0585)" id="Layer_1">
<path style="stroke: rgb(0,0,0); stroke-width: 10; stroke-dasharray: none; stroke-linecap: round; stroke-dashoffset: 0; stroke-linejoin: round; stroke-miterlimit: 2.6131; is-custom-font: none; font-file-url: none; fill: none; fill-rule: evenodd; opacity: 1;" transform=" translate(-185.089, -136.9415)" d="M 192.778 129.37 c 0 8.305 -6.977 15.143 -15.378 15.143" stroke-linecap="round"/>
</g>
		<g transform="matrix(1 0 0 1 -130.0425 -105.487)" id="Layer_1">
<line style="stroke: rgb(0,0,0); stroke-width: 10; stroke-dasharray: none; stroke-linecap: round; stroke-dashoffset: 0; stroke-linejoin: round; stroke-miterlimit: 2.6131; is-custom-font: none; font-file-url: none; fill: none; fill-rule: evenodd; opacity: 1;" x1="57.4425" y1="0" x2="-57.4425" y2="0"/>
</g>
		<g transform="matrix(1 0 0 1 72.26 -176.993)" id="Layer_1">
<line style="stroke: rgb(0,0,0); stroke-width: 10; stroke-dasharray: none; stroke-linecap: round; stroke-dashoffset: 0; stroke-linejoin: round; stroke-miterlimit: 2.6131; is-custom-font: none; font-file-url: none; fill: none; fill-rule: evenodd; opacity: 1;" x1="-54.446" y1="0" x2="54.446" y2="0"/>
</g>
		<g transform="matrix(1 0 0 1 130.091 -173.325)" id="Layer_1">
<path style="stroke: rgb(0,0,0); stroke-width: 10; stroke-dasharray: none; stroke-linecap: round; stroke-dashoffset: 0; stroke-linejoin: round; stroke-miterlimit: 2.6131; is-custom-font: none; font-file-url: none; fill: none; fill-rule: evenodd; opacity: 1;" transform=" translate(-380.091, -76.675)" d="M 376.706 73.007 c 3.737 0 6.77 3.28 6.77 7.336" stroke-linecap="round"/>
</g>
		<g transform="matrix(1 0 0 1 133.476 -138.6655)" id="Layer_1">
<line style="stroke: rgb(0,0,0); stroke-width: 10; stroke-dasharray: none; stroke-linecap: round; stroke-dashoffset: 0; stroke-linejoin: round; stroke-miterlimit: 2.6131; is-custom-font: none; font-file-url: none; fill: none; fill-rule: evenodd; opacity: 1;" x1="0" y1="-30.991499999999995" x2="0" y2="30.991499999999995"/>
</g>
		<g transform="matrix(1 0 0 1 130.091 -104.013)" id="Layer_1">
<path style="stroke: rgb(0,0,0); stroke-width: 10; stroke-dasharray: none; stroke-linecap: round; stroke-dashoffset: 0; stroke-linejoin: round; stroke-miterlimit: 2.6131; is-custom-font: none; font-file-url: none; fill: none; fill-rule: evenodd; opacity: 1;" transform=" translate(-380.091, -145.987)" d="M 383.476 142.326 c 0 4.056 -3.032 7.322 -6.77 7.322" stroke-linecap="round"/>
</g>
		<g transform="matrix(1 0 0 1 72.26 -100.352)" id="Layer_1">
<line style="stroke: rgb(0,0,0); stroke-width: 10; stroke-dasharray: none; stroke-linecap: round; stroke-dashoffset: 0; stroke-linejoin: round; stroke-miterlimit: 2.6131; is-custom-font: none; font-file-url: none; fill: none; fill-rule: evenodd; opacity: 1;" x1="54.446" y1="0" x2="-54.446" y2="0"/>
</g>
		<g transform="matrix(1 0 0 1 14.4155 -104.013)" id="Layer_1">
<path style="stroke: rgb(0,0,0); stroke-width: 10; stroke-dasharray: none; stroke-linecap: round; stroke-dashoffset: 0; stroke-linejoin: round; stroke-miterlimit: 2.6131; is-custom-font: none; font-file-url: none; fill: none; fill-rule: evenodd; opacity: 1;" transform=" translate(-264.4155, -145.987)" d="M 267.814 149.648 c -3.766 0 -6.797 -3.267 -6.797 -7.322" stroke-linecap="round"/>
</g>
		<g transform="matrix(1 0 0 1 11.018 -138.6655)" id="Layer_1">
<line style="stroke: rgb(0,0,0); stroke-width: 10; stroke-dasharray: none; stroke-linecap: round; stroke-dashoffset: 0; stroke-linejoin: round; stroke-miterlimit: 2.6131; is-custom-font: none; font-file-url: none; fill: none; fill-rule: evenodd; opacity: 1;" x1="0" y1="30.991499999999995" x2="0" y2="-30.991499999999995"/>
</g>
		<g transform="matrix(1 0 0 1 14.4165 -173.325)" id="Layer_1">
<path style="stroke: rgb(0,0,0); stroke-width: 10; stroke-dasharray: none; stroke-linecap: round; stroke-dashoffset: 0; stroke-linejoin: round; stroke-miterlimit: 2.6131; is-custom-font: none; font-file-url: none; fill: none; fill-rule: evenodd; opacity: 1;" transform=" translate(-264.4165, -76.675)" d="M 261.018 80.343 c 0 -4.056 3.031 -7.336 6.797 -7.336" stroke-linecap="round"/>
</g>
		<g transform="matrix(1 0 0 1 -35.04 -34.535)" id="Layer_1">
<line style="stroke: rgb(0,0,0); stroke-width: 10; stroke-dasharray: none; stroke-linecap: round; stroke-dashoffset: 0; stroke-linejoin: round; stroke-miterlimit: 2.6131; is-custom-font: none; font-file-url: none; fill: none; fill-rule: evenodd; opacity: 1;" x1="-107.00300000000001" y1="0" x2="107.00300000000001" y2="0"/>
</g>
		<g transform="matrix(1 0 0 1 -69.99 66.163)" id="Layer_1">
<line style="stroke: rgb(0,0,0); stroke-width: 10; stroke-dasharray: none; stroke-linecap: round; stroke-dashoffset: 0; stroke-linejoin: round; stroke-miterlimit: 2.6131; is-custom-font: none; font-file-url: none; fill: none; fill-rule: evenodd; opacity: 1;" x1="-72.053" y1="0" x2="72.053" y2="0"/>
</g>
		<g transform="matrix(1 0 0 1 -69.99 166.861)" id="Layer_1">
<line style="stroke: rgb(240,43,9); stroke-width: 10; stroke-dasharray: none; stroke-linecap: round; stroke-dashoffset: 0; stroke-linejoin: round; stroke-miterlimit: 2.6131; is-custom-font: none; font-file-url: none; fill: none; fill-rule: evenodd; opacity: 1;" x1="-72.053" y1="0" x2="72.053" y2="0"/>
</g>
</g>
</g>
</svg>